<?xml version="1.0" encoding="utf-8"?>
<!-- Generator: Adobe Illustrator 24.3.0, SVG Export Plug-In . SVG Version: 6.00 Build 0)  -->
<svg version="1.1" id="Ebene_1" xmlns="http://www.w3.org/2000/svg" xmlns:xlink="http://www.w3.org/1999/xlink" x="0px" y="0px"
	 width="300px" height="300px" viewBox="0 0 300 300" style="enable-background:new 0 0 300 300;" xml:space="preserve">
<style type="text/css">
	.st0{fill:none;stroke:#000000;stroke-width:6;stroke-linecap:round;stroke-miterlimit:10;}
</style>
<line class="st0" x1="173.1" y1="18.5" x2="0" y2="150.1"/>
<circle cx="141" cy="85.1" r="21.5"/>
<path d="M256.3,29.8C242.5,45.2,227.8,60,213,74.4c-8.8,8.6-17.8,17.2-28.2,24c-4.5,3-10.7,1.7-13.6-2.8c-2.6-4-1.8-9.2,1.6-12.4
	c11.9-11.1,26.4-20,39.9-29.1c8.5-5.7,17.4-11.3,26-16.8c5.1-3.1,10.7-6.7,15.9-9.7C255.9,26.6,257.5,28.6,256.3,29.8z"/>
<path d="M136.5,118.4c-3.5-4.4-9.9-5.1-14.3-1.6c-3.2,2.5-6.4,5.4-9.5,8.2c-5.1,4.4-10.2,8.6-15.2,12.9c0,0-1.5,1.2-1.5,1.2
	c-0.9-0.3-1.9-0.8-2.9-1.2c-7-3.4-14.1-7.8-20.9-12c-5.2-3.3-15.8-10.1-21-13.4c-1.3-1-3.1,0.8-2,2.1c2.7,3.2,5.5,6.3,8.3,9.4
	c7.7,8.2,28.9,32,39.7,32.4c3.3,0.1,6.7-1.4,9.5-2.7c7.1-3.3,13-8.3,18.9-13.2c3.3-2.7,6.4-5.4,9.7-8.3
	C139.2,128.7,139.8,122.6,136.5,118.4z"/>
<path d="M221.5,204.5c-8.7-19.4-28.5-29.9-47.4-36.7c-4.4-1.6-14.1-4.6-19.8-5.4c-5.7-0.8-12.1,2.2-13.8,8.1
	c-1.7,5.5-2.7,11.3-4.3,16.8c-4,14.1-9.5,27.9-17.5,40.5c-11.5,18.4-26.8,34.8-42.2,50.1c-1.7,1.5,0,4.1,2,3.3
	c10.5-4.7,20.6-10.5,30.1-17.2c19.6-14,36.9-31.1,47.4-53.5c2.3-5,4.1-10.2,5.4-15.7c4.3,2.4,9,4.1,13.8,5.7
	c9.6,2.8,20.7,6,27.2,13.8c6.2,8.2,7.3,18.6,8.7,29.1c1.3,11.8,2.2,24,3.8,36.1c0.2,2.3,3.5,2.3,3.8,0.1c0,0,2.9-17.8,2.9-17.8
	C224.3,243.2,229.2,223,221.5,204.5z"/>
</svg>
